<?xml version="1.0" encoding="iso-8859-1"?>
<!-- Generator: Adobe Illustrator 19.0.0, SVG Export Plug-In . SVG Version: 6.00 Build 0)  -->
<svg version="1.1" id="Layer_1" xmlns="http://www.w3.org/2000/svg" xmlns:xlink="http://www.w3.org/1999/xlink" x="0px" y="0px"
	 viewBox="0 0 448.031 448.031" style="enable-background:new 0 0 448.031 448.031;" xml:space="preserve">
<g transform="translate(0 -1020.36)" shape-rendering="auto" image-rendering="auto" color-rendering="auto" color-interpolation="sRGB">
	<path style="fill:#5A3392;" d="M224.079,1020.423L224.079,1020.423c-0.315,0.003-0.627,0-0.938,0
		c-4.109,0.48-7.184,3.992-7.094,8.125v23.875h-23.844c-0.285-0.014-0.563-0.014-0.843,0c-9.847,1.232-9.078,15.746,0.843,15.938
		h23.844v16.063h-26.219c-13.223,0-23.612,10.852-23.875,23.469h34.625v42.469h-26.281l5.625,26.438l-34.656,227.594h-17.219
		c-0.272-0.014-0.544-0.014-0.813,0c-4.122,0.432-7.255,3.889-7.219,8.031v47.938c-0.016,4.438,3.589,8.049,8.031,8.031H320.11
		c4.393,0,7.923-3.635,7.906-8.031v-47.938c0.016-4.396-3.512-7.979-7.906-8.031h-17.219l-34.75-227.594l13.563-63.438
		c3.157-14.766-8.275-28.938-23.375-28.938H232.11v-16.063h23.875c11.621,1.039,11.621-16.98,0-15.938H232.11v-23.875
		c0.112-4.506-3.527-8.205-8.031-8.188L224.079,1020.423z"/>
	<path style="fill:#FFFFFF;" d="M189.835,1100.479h68.5c5.267,0,8.914,4.535,7.813,9.688l-11.688,54.342h-60.844l-11.563-54.342
		C180.953,1105.014,184.568,1100.479,189.835,1100.479z"/>
	<path style="fill:#29A3EC;" d="M195.585,1180.448h57.031l34.125,224.063H161.335L195.585,1180.448z"/>
	<path style="fill:#EE746C;" d="M136.085,1420.448h176v32h-176V1420.448z"/>
	<path style="fill:#3CDEF6;" d="M197.928,1189.729l-12.625,82.625l26.625-13l6.969,14.406l-36.531,17.844l-2.312,15.094
		l31.875-15.594l6.969,14.438l-41.781,20.438l-10.594,69.252h115.031l-31.312-205.5h-52.312V1189.729z"/>
	<path style="fill:#FB9761;" d="M224.022,1424.448v24h80.063v-24H224.022z"/>
	<path style="fill:#EBFEFF;" d="M193.041,1103.477h62.089c4.774,0,8.08,4.111,7.081,8.781l-10.594,49.258h-55.15l-10.48-49.258
		C184.991,1107.591,188.268,1103.477,193.041,1103.477z"/>
</g>
<g>
</g>
<g>
</g>
<g>
</g>
<g>
</g>
<g>
</g>
<g>
</g>
<g>
</g>
<g>
</g>
<g>
</g>
<g>
</g>
<g>
</g>
<g>
</g>
<g>
</g>
<g>
</g>
<g>
</g>
</svg>
